<svg xmlns="http://www.w3.org/2000/svg" viewBox="0 0 640 400" role="img" aria-labelledby="title desc">
  <title id="title">Tela de vendas  CaraCore PDV</title>
  <desc id="desc">IlustrańŃo da tela de checkout com busca de produtos, carrinho e total.</desc>
  <rect width="640" height="400" fill="#eef4fb" rx="12"/>
  <rect x="16" y="16" width="608" height="36" fill="#0b3a66" rx="6"/>
  <rect x="28" y="26" width="80" height="16" fill="#fff" opacity="0.9" rx="3"/>
  <rect x="520" y="26" width="88" height="16" fill="#14538e" rx="3"/>
  <rect x="16" y="64" width="380" height="320" fill="#fff" stroke="#c6d5e6" rx="8"/>
  <rect x="32" y="80" width="348" height="32" fill="#f2f6fb" stroke="#c6d5e6" rx="6"/>
  <text x="44" y="100" fill="#4f647a" font-family="Segoe UI,sans-serif" font-size="13">Buscar produto (F2)&</text>
  <rect x="32" y="124" width="348" height="48" fill="#fafcfe" stroke="#c6d5e6" rx="4"/>
  <rect x="44" y="136" width="120" height="10" fill="#0b3a66" opacity="0.7" rx="2"/>
  <rect x="44" y="152" width="60" height="8" fill="#4f647a" opacity="0.5" rx="2"/>
  <rect x="300" y="140" width="64" height="16" fill="#14538e" opacity="0.2" rx="3"/>
  <rect x="32" y="180" width="348" height="48" fill="#fafcfe" stroke="#c6d5e6" rx="4"/>
  <rect x="44" y="192" width="100" height="10" fill="#0b3a66" opacity="0.7" rx="2"/>
  <rect x="300" y="196" width="64" height="16" fill="#14538e" opacity="0.2" rx="3"/>
  <rect x="408" y="64" width="216" height="320" fill="#fff" stroke="#c6d5e6" rx="8"/>
  <text x="424" y="92" fill="#0b3a66" font-family="Segoe UI,sans-serif" font-size="14" font-weight="600">Total</text>
  <text x="424" y="130" fill="#0b3a66" font-family="Segoe UI,sans-serif" font-size="28" font-weight="700">R$ 47,90</text>
  <rect x="424" y="150" width="184" height="36" fill="#e7f7ea" stroke="#9cd2a8" rx="6"/>
  <text x="436" y="173" fill="#1c6b31" font-family="Segoe UI,sans-serif" font-size="12">PIX  aguardando&</text>
  <rect x="424" y="300" width="184" height="40" fill="#0b3a66" rx="20"/>
  <text x="468" y="325" fill="#fff" font-family="Segoe UI,sans-serif" font-size="13" font-weight="600">Finalizar (F9)</text>
</svg>
