<svg xmlns="http://www.w3.org/2000/svg" viewBox="0 0 640 400" role="img" aria-labelledby="title desc">
  <title id="title">Tela de caixa  CaraCore PDV</title>
  <desc id="desc">IlustraÁ„o do fechamento de turno com sangria e backup autom·tico.</desc>
  <rect width="640" height="400" fill="#eef4fb" rx="12"/>
  <rect x="16" y="16" width="608" height="36" fill="#0b3a66" rx="6"/>
  <rect x="28" y="26" width="100" height="16" fill="#fff" opacity="0.9" rx="3"/>
  <rect x="16" y="64" width="608" height="320" fill="#fff" stroke="#c6d5e6" rx="8"/>
  <text x="36" y="96" fill="#0b3a66" font-family="Segoe UI,sans-serif" font-size="16" font-weight="600">Turno aberto  Caixa 01</text>
  <rect x="36" y="112" width="180" height="72" fill="#f2f6fb" stroke="#c6d5e6" rx="8"/>
  <text x="48" y="136" fill="#4f647a" font-family="Segoe UI,sans-serif" font-size="11">Vendas do turno</text>
  <text x="48" y="164" fill="#0b3a66" font-family="Segoe UI,sans-serif" font-size="22" font-weight="700">R$ 2.340</text>
  <rect x="230" y="112" width="180" height="72" fill="#fff6e5" stroke="#e7c27f" rx="8"/>
  <text x="242" y="136" fill="#8a5600" font-family="Segoe UI,sans-serif" font-size="11">Dinheiro no caixa</text>
  <text x="242" y="164" fill="#8a5600" font-family="Segoe UI,sans-serif" font-size="22" font-weight="700">R$ 890</text>
  <rect x="424" y="112" width="180" height="72" fill="#e7f7ea" stroke="#9cd2a8" rx="8"/>
  <text x="436" y="136" fill="#1c6b31" font-family="Segoe UI,sans-serif" font-size="11">Backup</text>
  <text x="436" y="164" fill="#1c6b31" font-family="Segoe UI,sans-serif" font-size="14" font-weight="600">Autom·tico </text>
  <rect x="36" y="208" width="568" height="48" fill="#fafcfe" stroke="#c6d5e6" rx="6"/>
  <text x="48" y="238" fill="#4f647a" font-family="Segoe UI,sans-serif" font-size="13">Sangria recomendada  limite de dinheiro fÌsico atingido</text>
  <rect x="36" y="280" width="160" height="40" fill="#14538e" rx="20"/>
  <text x="72" y="305" fill="#fff" font-family="Segoe UI,sans-serif" font-size="13" font-weight="600">Sangria</text>
  <rect x="210" y="280" width="160" height="40" fill="#fff" stroke="#c6d5e6" rx="20"/>
  <text x="248" y="305" fill="#0b3a66" font-family="Segoe UI,sans-serif" font-size="13">Suprimento</text>
  <rect x="444" y="280" width="160" height="40" fill="#0b3a66" rx="20"/>
  <text x="478" y="305" fill="#fff" font-family="Segoe UI,sans-serif" font-size="13" font-weight="600">Fechar turno</text>
</svg>
